<svg version="1.1" id="Layer_1" xmlns="http://www.w3.org/2000/svg" xmlns:xlink="http://www.w3.org/1999/xlink" x="0px" y="0px"
	 width="100%" viewBox="0 0 230 225" enable-background="new 0 0 230 225" xml:space="preserve">
<path fill="#FFFFFF" opacity="1.000000" stroke="none" 
	d="
M1.000001,140.000000 
	C1.000000,125.979103 1.000000,111.958214 1.349617,97.767700 
	C2.127792,96.938965 2.814732,96.327957 2.947691,95.613815 
	C8.421277,66.214378 23.926117,42.706497 47.612938,25.407394 
	C73.624695,6.410329 103.095497,-0.754959 135.464951,4.853726 
	C156.211823,8.448557 174.658340,16.661152 190.468491,30.182568 
	C210.661057,47.452007 224.172485,69.028984 229.080551,95.528503 
	C229.189606,96.117310 230.336975,96.513802 231.000000,97.000000 
	C231.000000,111.020897 231.000000,125.041786 230.650406,139.232300 
	C229.872299,140.059799 229.270538,140.662704 229.041656,141.383926 
	C226.287186,150.064377 224.596664,159.248199 220.686966,167.365524 
	C208.471024,192.728287 189.725998,211.897842 163.840225,223.683044 
	C163.040894,224.046951 162.605225,225.209686 162.000000,226.000000 
	C156.645065,226.000000 151.290146,226.000000 145.461075,225.569977 
	C144.657959,223.409729 144.062515,221.682266 144.044556,219.948822 
	C143.949600,210.784241 143.746078,201.609085 144.073776,192.455261 
	C144.381256,183.866577 143.214386,175.899887 136.657166,169.018280 
	C140.915405,168.273407 144.600784,167.815063 148.193130,166.964035 
	C157.505646,164.757919 166.343338,161.631424 173.640213,154.939346 
	C182.476685,146.835281 186.471832,136.778976 188.177185,125.079781 
	C190.412949,109.741806 188.707428,95.689171 178.822906,83.202805 
	C178.048645,82.224739 177.711441,80.275131 178.110291,79.094292 
	C180.943268,70.707031 179.576447,62.670155 177.269028,54.397568 
	C176.173950,50.471481 173.948822,50.316265 171.527740,51.294250 
	C163.541641,54.520180 155.744400,58.211479 147.843277,61.652012 
	C146.417786,62.272736 144.763901,63.095161 143.353149,62.887772 
	C139.062271,62.256981 134.858185,60.515205 130.585159,60.388237 
	C120.667625,60.093544 110.677795,59.914017 100.816216,60.795174 
	C93.080971,61.486332 85.957504,63.880436 78.563560,58.197121 
	C72.287903,53.373352 64.338066,51.168438 56.547749,51.003544 
	C52.670307,60.974174 51.466599,70.431496 54.866264,80.167480 
	C55.218658,81.176666 54.292240,83.025650 53.420944,84.007179 
	C45.912167,92.465927 43.440094,102.840103 43.213768,113.570351 
	C43.072319,120.276283 44.283314,127.237343 46.165314,133.712509 
	C50.168259,147.484940 58.043941,158.355972 72.391815,163.015427 
	C80.033257,165.496948 87.817947,167.537354 94.448563,169.460831 
	C92.702301,173.572861 91.026886,178.021744 88.912735,182.251297 
	C88.053757,183.969742 86.475044,186.089417 84.824165,186.530426 
	C71.849342,189.996521 63.711456,188.249725 54.960144,177.220306 
	C51.769993,173.199707 48.257664,169.300781 44.311249,166.052246 
	C40.441338,162.866669 35.072765,163.254288 31.881641,166.093979 
	C32.385895,166.698502 32.772793,167.532730 33.421268,167.883881 
	C42.214287,172.645096 46.430058,180.831787 50.299004,189.507233 
	C52.378147,194.169357 56.337860,197.136536 61.316856,199.165543 
	C70.092995,202.741943 78.874458,201.433762 88.000000,200.239456 
	C88.000000,208.977570 88.000000,217.488785 88.000000,226.000000 
	C82.311958,226.000000 76.623917,226.000000 70.758072,225.692078 
	C69.241722,224.557541 67.893456,223.746170 66.566185,222.901779 
	C58.157543,217.552322 49.007446,213.071747 41.491955,206.672165 
	C21.293066,189.472443 7.815848,167.922913 2.919123,141.466248 
	C2.810471,140.879211 1.662928,140.484451 1.000001,140.000000 
z"/>
<path fill="#000000" opacity="1.000000" stroke="none" 
	d="
M88.468658,226.000000 
	C88.000000,217.488785 88.000000,208.977570 88.000000,200.239456 
	C78.874458,201.433762 70.092995,202.741943 61.316856,199.165543 
	C56.337860,197.136536 52.378147,194.169357 50.299004,189.507233 
	C46.430058,180.831787 42.214287,172.645096 33.421268,167.883881 
	C32.772793,167.532730 32.385895,166.698502 31.881641,166.093979 
	C35.072765,163.254288 40.441338,162.866669 44.311249,166.052246 
	C48.257664,169.300781 51.769993,173.199707 54.960144,177.220306 
	C63.711456,188.249725 71.849342,189.996521 84.824165,186.530426 
	C86.475044,186.089417 88.053757,183.969742 88.912735,182.251297 
	C91.026886,178.021744 92.702301,173.572861 94.448563,169.460831 
	C87.817947,167.537354 80.033257,165.496948 72.391815,163.015427 
	C58.043941,158.355972 50.168259,147.484940 46.165314,133.712509 
	C44.283314,127.237343 43.072319,120.276283 43.213768,113.570351 
	C43.440094,102.840103 45.912167,92.465927 53.420944,84.007179 
	C54.292240,83.025650 55.218658,81.176666 54.866264,80.167480 
	C51.466599,70.431496 52.670307,60.974174 56.547749,51.003544 
	C64.338066,51.168438 72.287903,53.373352 78.563560,58.197121 
	C85.957504,63.880436 93.080971,61.486332 100.816216,60.795174 
	C110.677795,59.914017 120.667625,60.093544 130.585159,60.388237 
	C134.858185,60.515205 139.062271,62.256981 143.353149,62.887772 
	C144.763901,63.095161 146.417786,62.272736 147.843277,61.652012 
	C155.744400,58.211479 163.541641,54.520180 171.527740,51.294250 
	C173.948822,50.316265 176.173950,50.471481 177.269028,54.397568 
	C179.576447,62.670155 180.943268,70.707031 178.110291,79.094292 
	C177.711441,80.275131 178.048645,82.224739 178.822906,83.202805 
	C188.707428,95.689171 190.412949,109.741806 188.177185,125.079781 
	C186.471832,136.778976 182.476685,146.835281 173.640213,154.939346 
	C166.343338,161.631424 157.505646,164.757919 148.193130,166.964035 
	C144.600784,167.815063 140.915405,168.273407 136.657166,169.018280 
	C143.214386,175.899887 144.381256,183.866577 144.073776,192.455261 
	C143.746078,201.609085 143.949600,210.784241 144.044556,219.948822 
	C144.062515,221.682266 144.657959,223.409729 144.993469,225.569977 
	C126.312439,226.000000 107.624878,226.000000 88.468658,226.000000 
z"/>
<path fill="#000000" opacity="1.000000" stroke="none" 
	d="
M231.000000,96.531342 
	C230.336975,96.513802 229.189606,96.117310 229.080551,95.528503 
	C224.172485,69.028984 210.661057,47.452007 190.468491,30.182568 
	C174.658340,16.661152 156.211823,8.448557 135.464951,4.853726 
	C103.095497,-0.754959 73.624695,6.410329 47.612938,25.407394 
	C23.926117,42.706497 8.421277,66.214378 2.947691,95.613815 
	C2.814732,96.327957 2.127792,96.938965 1.349617,97.299042 
	C1.000000,65.033195 1.000000,33.066391 1.000000,1.049793 
	C77.553909,1.049793 154.107864,1.049793 231.000000,1.049793 
	C231.000000,32.686760 231.000000,64.374718 231.000000,96.531342 
z"/>
<path fill="#000000" opacity="1.000000" stroke="none" 
	d="
M1.000001,140.468658 
	C1.662928,140.484451 2.810471,140.879211 2.919123,141.466248 
	C7.815848,167.922913 21.293066,189.472443 41.491955,206.672165 
	C49.007446,213.071747 58.157543,217.552322 66.566185,222.901779 
	C67.893456,223.746170 69.241722,224.557541 70.290138,225.692078 
	C47.065102,226.000000 24.130201,226.000000 1.000000,226.000000 
	C1.000000,197.646072 1.000000,169.291687 1.000001,140.468658 
z"/>
<path fill="#000000" opacity="1.000000" stroke="none" 
	d="
M162.468658,226.000000 
	C162.605225,225.209686 163.040894,224.046951 163.840225,223.683044 
	C189.725998,211.897842 208.471024,192.728287 220.686966,167.365524 
	C224.596664,159.248199 226.287186,150.064377 229.041656,141.383926 
	C229.270538,140.662704 229.872299,140.059799 230.650406,139.700958 
	C231.000000,168.585526 231.000000,197.171051 231.000000,226.000000 
	C208.313019,226.000000 185.625168,226.000000 162.468658,226.000000 
z"/>
</svg>